<svg width="32" height="32" viewBox="0 0 32 32" fill="none" xmlns="http://www.w3.org/2000/svg">
<path d="M25.7715 0H5.94727C2.66268 0 0 2.66268 0 5.94727V25.7715C0 29.0561 2.66268 31.7188 5.94727 31.7188H25.7715C29.0561 31.7188 31.7188 29.0561 31.7188 25.7715V5.94727C31.7188 2.66268 29.0561 0 25.7715 0Z" fill="#016F41"/>
<path fill-rule="evenodd" clip-rule="evenodd" d="M24.2074 20.7686C24.1818 20.4778 23.8909 20.3248 23.3345 20.3094C22.778 20.2941 22.0659 20.2814 21.1985 20.2711L21.1681 18.5102L22.6075 17.7904C22.9238 17.6782 23.1636 17.3568 23.327 16.826C23.4903 16.2953 23.587 15.7849 23.6177 15.2948C23.6384 14.8967 23.6409 14.4373 23.6255 13.9168C23.6104 13.3961 23.4441 13.1155 23.1279 13.0747C22.9238 13.0647 22.7729 13.1387 22.6762 13.2967C22.5788 13.4552 22.5257 13.6462 22.5151 13.8709L22.4389 15.4938C22.4181 15.8205 22.3771 16.0833 22.3162 16.2824C22.255 16.4815 22.1555 16.6677 22.0175 16.8412C21.8799 17.0148 21.5967 17.2087 21.1681 17.4232L21.1985 16.5503L21.2449 15.8309V14.6978C21.2404 14.4689 21.2511 14.2518 21.2738 14.0465C21.4334 12.5947 22.1916 11.7289 22.4465 11.4516C22.7375 11.1352 22.977 10.755 23.1656 10.3108C23.3552 9.86707 23.4595 9.3289 23.48 8.69582C23.4903 8.16488 23.4163 7.74129 23.2579 7.42472C23.0995 7.1084 22.8296 6.82265 22.4465 6.56738C22.0638 6.31254 21.6811 6.14902 21.2981 6.07758C20.9157 6.00633 20.4815 5.97566 19.9967 5.98562C19.5115 5.99582 19.2027 5.94992 19.0704 5.84769C18.8966 5.73539 18.7946 5.56195 18.7641 5.32722C18.7334 5.09242 18.7971 4.85008 18.9555 4.5998C19.1136 4.34992 19.55 4.1482 20.2647 3.99508C20.9791 3.84183 21.6374 3.78066 22.2395 3.81125L22.7911 3.85711C23.1992 3.89805 23.5053 3.84711 23.7098 3.70406C23.9136 3.56129 23.9981 3.32664 23.9623 2.99992C23.9265 2.6732 23.2809 2.515 22.0254 2.52492C20.9843 2.53535 20.0759 2.69371 19.3 2.99992C18.5241 3.30601 18.0237 3.63777 17.7994 3.99508C17.5644 4.35258 17.4829 5.02855 17.5545 6.02383C17.626 7.01898 18.3505 7.4148 19.7286 7.21031L19.4531 8.11383C19.3407 8.50179 19.1189 8.90484 18.7872 9.32344C18.4551 9.74207 18.0493 10.1375 17.5699 10.51C17.09 10.8828 16.7863 11.1711 16.6586 11.3751C16.531 11.5794 16.5236 11.7555 16.6358 11.9034C16.7478 12.0514 16.9064 12.1202 17.1104 12.1098C17.3146 12.1 17.5187 12.0259 17.723 11.8879C17.927 11.7505 18.1721 11.5589 18.458 11.3138C18.7434 11.0687 19.0935 10.7321 19.5067 10.3033C19.9202 9.87461 20.2361 9.35164 20.4562 8.73394C20.6755 8.11625 20.8463 7.6084 20.9689 7.21031C21.5302 7.38398 21.9081 7.62383 22.102 7.93C22.2342 8.16488 22.2987 8.48879 22.2935 8.90219C22.2881 9.31586 22.2018 9.67816 22.0333 9.98941C21.8648 10.3009 21.6275 10.6148 21.3215 10.9309C20.2904 12.3584 20.0606 13.3705 20.1593 14.0257C20.1208 14.3358 20.0961 14.6506 20.0961 14.9733V16.688C20.086 16.862 20.0759 17.117 20.0656 17.4536C19.3204 17.4333 18.871 17.2878 18.7182 17.0173C18.5652 16.7472 18.4681 16.4689 18.4271 16.1829C18.315 15.5911 18.2689 15.1061 18.2898 14.7282L18.3201 14.1924C18.3201 13.825 18.2025 13.6208 17.9681 13.5799C17.7329 13.539 17.5545 13.598 17.4323 13.756C17.3096 13.9146 17.2378 14.1033 17.2175 14.3225C17.197 14.542 17.1868 14.7692 17.1868 15.004C17.1663 15.5452 17.197 16.0757 17.2789 16.5963C17.3606 17.117 17.6131 17.5789 18.0368 17.9818C18.4602 18.3853 19.1468 18.6071 20.0961 18.648L20.035 20.3018C18.6058 20.3425 17.7255 20.3655 17.394 20.3705C17.0619 20.3758 16.8297 20.4448 16.6972 20.5771C16.5441 20.7303 16.4775 20.8887 16.498 21.0519C16.5186 21.2154 16.5847 21.3479 16.6972 21.4501C16.8092 21.5519 16.9622 21.6133 17.1563 21.6337C17.2378 21.6541 17.3886 21.649 17.608 21.6185C17.8275 21.5877 18.2053 21.57 18.7411 21.5649C19.2772 21.56 19.6982 21.5472 20.0045 21.5267L19.9279 23.5478L19.9431 25.232L19.882 27.3448L19.9279 29.3509C19.9069 29.6873 19.9328 29.9171 20.0045 30.0396C20.1368 30.3051 20.3309 30.4171 20.586 30.3764C20.841 30.3355 20.9945 30.0676 21.0457 29.5725C21.0967 29.0772 21.1321 28.539 21.1528 27.9573C21.1528 27.6 21.1502 26.8062 21.145 25.5761C21.1397 24.3466 21.1477 22.9964 21.1681 21.5267C22.873 21.6082 23.8114 21.5752 23.9849 21.4269C24.1587 21.2793 24.2329 21.0596 24.2074 20.7686Z" fill="white"/>
<path fill-rule="evenodd" clip-rule="evenodd" d="M14.7547 13.087L13.7903 12.5663C13.6472 12.5157 13.5091 12.3804 13.3767 12.1605C13.244 11.9413 13.1496 11.7678 13.0937 11.64C13.0372 11.5127 13.0042 11.3084 12.9938 11.0275C12.9836 10.7471 12.9735 10.4227 12.9632 10.0554C13.7798 10.1679 14.2879 10.3413 14.4869 10.576C14.686 10.811 14.7904 11.1374 14.8008 11.556C14.8109 11.9746 14.7954 12.4851 14.7547 13.087ZM14.6731 15.9995C14.6628 16.1833 14.6527 16.7245 14.6427 17.6224C13.7239 16.8775 13.2083 16.4129 13.0963 16.2292C12.9839 16.0454 12.9202 15.8388 12.9049 15.6091C12.8895 15.3794 12.8791 15.1495 12.8741 14.9202C12.869 14.6903 12.8385 14.5221 12.7823 14.4147C12.7261 14.3076 12.5603 14.2414 12.2845 14.2157C12.009 14.1904 11.8457 14.4224 11.7947 14.9125C11.7435 15.4023 11.6925 15.7801 11.6413 16.0454C11.5902 16.3109 11.4705 16.602 11.2818 16.9181C11.0926 17.2346 10.8936 17.4721 10.6846 17.6302C10.4752 17.7886 10.2123 17.9545 9.89606 18.1279V16.4129C9.89606 16.2394 9.88059 15.6833 9.85032 14.7439C10.6868 14.3152 11.1822 14.0375 11.3354 13.9097C11.4883 13.782 11.8407 13.3813 12.3918 12.7076C12.7692 13.2384 13.1086 13.6008 13.41 13.7947C13.711 13.9888 14.1578 14.1879 14.7497 14.3918L14.6731 15.9995ZM9.80313 12.7052L9.75739 11.71C9.76715 11.4139 9.85669 11.1508 10.0251 10.9213C10.1934 10.6918 10.7676 10.4289 11.7474 10.1328V10.7454C11.7577 11.4089 11.5813 11.945 11.2195 12.353C10.857 12.7613 10.3949 13.1286 9.83379 13.4553L9.80313 12.7052ZM16.2967 25.6582C16.1944 25.0764 16.1153 24.436 16.0594 23.7368C16.0033 23.0376 15.962 22.2949 15.937 21.5089C15.911 20.7228 15.8988 19.835 15.8988 18.8447C15.8886 17.5688 15.9062 16.1422 15.952 14.5651C15.9982 12.9881 16.0107 11.9647 15.9904 11.4952C15.9599 11.0565 15.832 10.5588 15.6073 10.0023C15.3829 9.44613 14.5002 9.07602 12.9586 8.89223L12.9891 8.44805C13.0198 7.89684 13.1295 7.56535 13.3185 7.45297C13.5071 7.34047 13.8415 7.20293 14.3215 7.03957C14.8012 6.87617 15.1687 6.62621 15.424 6.28906C15.6788 5.95258 15.8117 5.55953 15.8223 5.11024C15.832 4.0284 15.3984 3.39055 14.5205 3.19617C13.6426 3.00262 12.9843 2.92094 12.5455 2.95125L11.4122 3.08906C10.7283 3.14055 10.3073 3.04859 10.1494 2.81363C9.99071 2.57891 9.90137 2.31082 9.88102 2.00973C9.86051 1.70859 9.81731 1.52738 9.75102 1.46617C9.68462 1.405 9.61559 1.36426 9.54442 1.34383C9.31985 1.30316 9.13579 1.36668 8.99333 1.53516C8.85001 1.70352 8.78645 1.97695 8.80169 2.35434C8.81696 2.73227 8.8934 3.05621 9.03137 3.32652C9.16883 3.59715 9.37348 3.80395 9.64391 3.94664C9.91407 4.08957 10.2434 4.20703 10.6312 4.29902V5.35516C10.6517 5.48805 10.5012 5.68715 10.1798 5.95258C9.85817 6.21801 9.4395 6.41688 8.92426 6.54957C8.40883 6.68246 8.0768 6.81754 7.92922 6.95535C7.78067 7.09297 7.71696 7.24637 7.73747 7.41477C7.75798 7.58313 7.89071 7.72094 8.13579 7.82801C8.38071 7.93527 8.90864 7.82582 9.72059 7.49902C10.5317 7.17231 11.0449 6.83828 11.2592 6.49602C11.4734 6.1541 11.6137 5.81231 11.6802 5.47027C11.7467 5.12816 11.8106 4.73281 11.8717 4.28359C12.5148 4.25277 13.0097 4.24297 13.357 4.25277C13.7038 4.26324 13.9793 4.35016 14.1836 4.51313C14.3877 4.67648 14.5053 4.845 14.5358 5.01856C14.5561 5.27383 14.4973 5.46008 14.3597 5.57719C14.2222 5.69484 13.9717 5.83266 13.6096 5.99078C13.2468 6.14902 12.8641 6.4018 12.4613 6.74856C12.0578 7.09582 11.8309 7.46586 11.7798 7.85875C11.7287 8.2518 11.7135 8.62191 11.7338 8.96875C10.2229 9.25481 9.30934 9.61699 8.99333 10.0559C8.6768 10.4947 8.49817 10.9541 8.45715 11.4341C8.43637 11.6789 8.4495 12.1025 8.49559 12.7048C8.54137 13.307 8.57442 14.1341 8.59508 15.1852L8.62559 17.6809C8.63579 18.6814 8.62797 19.5058 8.60255 20.1536C8.57712 20.8022 8.51071 21.6389 8.40356 22.6649C8.29645 23.6907 8.1663 24.6014 8.01309 25.398L7.59965 27.4648C7.57544 27.6198 7.55653 27.7667 7.54145 27.9079C7.54145 27.9079 7.37895 29.119 7.73008 29.3055C8.00458 29.4514 8.19547 29.3785 8.34516 29.3086C8.48465 29.2261 8.59907 29.0417 8.68704 28.7511C8.8193 28.3122 8.91684 27.9293 8.97782 27.6028C9.03903 27.2759 9.18188 26.2784 9.40669 24.6092C9.63106 22.9404 9.75891 21.9224 9.78915 21.5547C9.81985 21.1873 9.84508 20.4675 9.86575 19.3957C10.3558 19.2528 10.7791 19.059 11.1366 18.8141C11.4937 18.5689 11.9431 18.1046 12.4843 17.4207L12.8975 17.8955C13.112 18.1709 13.6832 18.5384 14.6124 18.9978L14.6431 20.2993C14.6632 21.4322 14.6865 22.2642 14.7117 22.7948C14.7371 23.3256 14.8138 24.2163 14.9418 25.4668C15.0692 26.7173 15.2043 27.5543 15.3473 27.9776C15.49 28.4014 15.6329 28.6846 15.7762 28.8278C16.0822 29.1543 16.312 29.1927 16.4652 28.9425C16.618 28.6921 16.6919 28.4678 16.6872 28.2687C16.6817 28.0698 16.6588 27.8171 16.618 27.5108L16.2967 25.6582Z" fill="white"/>
</svg>
