<svg width="16" height="16" viewBox="0 0 16 16" fill="none" xmlns="http://www.w3.org/2000/svg">
<g clip-path="url(#clip0_56_90)">
<path d="M12.9946 5.66667C12.9902 5.33661 12.9828 5.00659 12.9722 4.67667C12.8822 4.41567 12.5416 3.64534 11.3979 2.544C10.1752 1.36667 9.34557 1.073 9.13457 1.01334C8.75641 1.00429 8.37816 0.99985 7.9999 1C6.40723 1 5.27123 1.074 4.5189 1.151C3.78423 1.22634 3.2349 1.77434 3.16123 2.509C3.11287 3.005 3.0773 3.50217 3.05457 4" stroke="white" stroke-linecap="round" stroke-linejoin="round"/>
<path d="M9.37758 1.16663C9.29758 1.64429 9.33892 2.48563 9.39925 3.19896C9.42893 3.56084 9.58619 3.90042 9.84297 4.15714C10.0997 4.41386 10.4394 4.57103 10.8013 4.60063C11.5146 4.66063 12.3556 4.70229 12.8333 4.62263M4.01225 5.08029C4.62225 5.01529 5.21992 5.26763 5.62825 5.72629L6.26892 6.44629C6.39403 6.5868 6.54745 6.69924 6.71911 6.77622C6.89078 6.8532 7.07679 6.89299 7.26492 6.89296H12.6909C13.7299 6.89296 14.5963 7.68896 14.6343 8.72729C14.6543 9.27163 14.6666 9.86096 14.6666 10.4603C14.6666 11.6083 14.5786 12.6353 14.4953 13.3503C14.4196 14.0003 13.9839 14.524 13.3403 14.642C12.4203 14.8106 10.7703 15 7.99992 15C5.22959 15 3.57992 14.8106 2.65959 14.642C2.01625 14.524 1.58059 14.0003 1.50459 13.3503C1.39243 12.391 1.33523 11.4261 1.33325 10.4603C1.33325 8.72996 1.42892 7.42363 1.51525 6.59763C1.58325 5.94696 2.01359 5.41463 2.65459 5.28429C3.1036 5.19515 3.55687 5.12707 4.01225 5.08029Z" stroke="white" stroke-width="1.1" stroke-linecap="round" stroke-linejoin="round"/>
</g>
<defs>
<clipPath id="clip0_56_90">
<rect width="16" height="16" fill="white"/>
</clipPath>
</defs>
</svg>
