<svg width="16" height="16" viewBox="0 0 16 16" fill="none" xmlns="http://www.w3.org/2000/svg">
<g clip-path="url(#clip0_84_598)">
<path d="M12.9946 5.66667C12.9903 5.33661 12.9829 5.00659 12.9723 4.67667C12.8823 4.41567 12.5416 3.64534 11.398 2.544C10.1753 1.36667 9.34563 1.073 9.13463 1.01334C8.75648 1.00429 8.37823 0.99985 7.99997 1C6.4073 1 5.2713 1.074 4.51897 1.151C3.7843 1.22634 3.23497 1.77434 3.1613 2.509C3.11294 3.005 3.07737 3.50217 3.05463 4" stroke="#9D9D9D" stroke-linecap="round" stroke-linejoin="round"/>
<path d="M9.37768 1.1665C9.29768 1.64417 9.33901 2.4855 9.39934 3.19884C9.42903 3.56072 9.58628 3.9003 9.84306 4.15702C10.0998 4.41374 10.4395 4.57091 10.8013 4.6005C11.5147 4.6605 12.3557 4.70217 12.8333 4.6225M4.01234 5.08017C4.62234 5.01517 5.22001 5.2675 5.62834 5.72617L6.26901 6.44617C6.39412 6.58668 6.54754 6.69912 6.71921 6.7761C6.89087 6.85308 7.07688 6.89287 7.26501 6.89284H12.691C13.73 6.89284 14.5963 7.68884 14.6343 8.72717C14.6543 9.2715 14.6667 9.86084 14.6667 10.4602C14.6667 11.6082 14.5787 12.6352 14.4953 13.3502C14.4197 14.0002 13.984 14.5238 13.3403 14.6418C12.4203 14.8105 10.7703 14.9998 8.00001 14.9998C5.22968 14.9998 3.58001 14.8105 2.65968 14.6418C2.01634 14.5238 1.58068 14.0002 1.50468 13.3502C1.39252 12.3909 1.33532 11.426 1.33334 10.4602C1.33334 8.72984 1.42901 7.4235 1.51534 6.5975C1.58334 5.94684 2.01368 5.4145 2.65468 5.28417C3.10369 5.19502 3.55696 5.12695 4.01234 5.08017Z" stroke="#9D9D9D" stroke-linecap="round" stroke-linejoin="round"/>
</g>
<defs>
<clipPath id="clip0_84_598">
<rect width="16" height="16" fill="white"/>
</clipPath>
</defs>
</svg>
