<svg width="372" height="110" viewBox="0 0 372 110" fill="none" xmlns="http://www.w3.org/2000/svg">
<path d="M67.999 8H58V32H84V24H92L91.999 0H92V110H0V0H67.999V8ZM8 8V102H84V40H50V8H8ZM31 88H23V80H31V88ZM69 88H61V80H69V88ZM61 80H31V72H61V80ZM32 40H24V24H32V40ZM84 24H76V16H84V24ZM76 16H68V8H76V16Z" fill="#00733C"/>
<path d="M301.618 83.7065V74.0107L344.418 6.33008H351.456V21.3491H346.701L314.363 72.4898V73.2502H372V83.7065H301.618ZM347.462 103.668V80.7597V76.2445V6.33008H358.685V103.668H347.462Z" fill="#00733C"/>
<path d="M251.971 105C244.806 105 238.703 103.051 233.662 99.154C228.621 95.225 224.769 89.5374 222.106 82.0913C219.443 74.6134 218.111 65.583 218.111 55C218.111 44.4804 219.443 35.4975 222.106 28.0513C224.801 20.5735 228.669 14.8701 233.709 10.9411C238.782 6.98035 244.869 5 251.971 5C259.072 5 265.144 6.98035 270.184 10.9411C275.257 14.8701 279.125 20.5735 281.788 28.0513C284.483 35.4975 285.83 44.4804 285.83 55C285.83 65.583 284.499 74.6134 281.836 82.0913C279.172 89.5374 275.32 95.225 270.28 99.154C265.239 103.051 259.136 105 251.971 105ZM251.971 94.5437C259.072 94.5437 264.589 91.1217 268.52 84.2776C272.451 77.4335 274.417 67.6743 274.417 55C274.417 46.5716 273.513 39.3948 271.706 33.4696C269.931 27.5444 267.363 23.0292 264.002 19.924C260.673 16.8188 256.663 15.2662 251.971 15.2662C244.933 15.2662 239.432 18.7357 235.469 25.6749C231.506 32.5824 229.525 42.3574 229.525 55C229.525 63.4284 230.412 70.5894 232.188 76.4829C233.963 82.3764 236.515 86.8599 239.844 89.9335C243.205 93.007 247.247 94.5437 251.971 94.5437Z" fill="#00733C"/>
<path d="M132 83.7065V74.0107L174.8 6.33008H181.838V21.3491H177.082L144.745 72.4898V73.2502H202.382V83.7065H132ZM177.843 103.668V80.7597V76.2445V6.33008H189.066V103.668H177.843Z" fill="#00733C"/>
</svg>
