<svg width="18" height="16" viewBox="0 0 18 16" fill="none" xmlns="http://www.w3.org/2000/svg">
<path d="M1.25337 9.40239C0.817581 8.61978 0.600098 8.22765 0.600098 7.8001C0.600098 7.37255 0.817581 6.98124 1.25337 6.19863L2.36385 4.2001L3.53859 2.23863C3.99909 1.47003 4.22893 1.08532 4.59882 0.871127C4.96953 0.657764 5.41685 0.651173 6.31232 0.636345L8.60001 0.600098L10.886 0.636345C11.7823 0.651173 12.2297 0.657764 12.5995 0.871951C12.9694 1.08614 13.2009 1.47003 13.6606 2.23863L14.8362 4.2001L15.9483 6.19863C16.3833 6.98124 16.6007 7.37255 16.6007 7.8001C16.6007 8.22765 16.3833 8.61895 15.9475 9.40156L14.8362 11.4001L13.6614 13.3616C13.2009 14.1302 12.9711 14.5149 12.6012 14.7291C12.2305 14.9424 11.7832 14.949 10.8877 14.9639L8.60001 15.0001L6.31397 14.9639C5.41767 14.949 4.97035 14.9424 4.60046 14.7282C4.23058 14.5141 3.99909 14.1302 3.53941 13.3616L2.36385 11.4001L1.25337 9.40239Z" stroke="#9D9D9D" stroke-width="1.2"/>
<path d="M8.60006 10.269C9.96497 10.269 11.0715 9.16248 11.0715 7.79757C11.0715 6.43265 9.96497 5.32617 8.60006 5.32617C7.23514 5.32617 6.12866 6.43265 6.12866 7.79757C6.12866 9.16248 7.23514 10.269 8.60006 10.269Z" stroke="#9D9D9D" stroke-width="1.2"/>
</svg>
