<svg width="36" height="36" viewBox="0 0 36 36" fill="none" xmlns="http://www.w3.org/2000/svg">
<rect x="0.5" y="0.5" width="35" height="35" rx="17.5" fill="#FBFBFB"/>
<rect x="0.5" y="0.5" width="35" height="35" rx="17.5" stroke="#DFDFDF"/>
<path d="M10.6529 19.6023C10.2171 18.8197 9.99963 18.4275 9.99963 18C9.99963 17.5724 10.2171 17.1811 10.6529 16.3985L11.7634 14.4L12.9381 12.4385C13.3986 11.6699 13.6285 11.2852 13.9984 11.071C14.3691 10.8577 14.8164 10.8511 15.7119 10.8362L17.9995 10.8L20.2856 10.8362C21.1819 10.8511 21.6292 10.8577 21.9991 11.0718C22.369 11.286 22.6005 11.6699 23.0601 12.4385L24.2357 14.4L25.3478 16.3985C25.7828 17.1811 26.0003 17.5724 26.0003 18C26.0003 18.4275 25.7828 18.8188 25.347 19.6015L24.2357 21.6L23.061 23.5615C22.6005 24.3301 22.3706 24.7148 22.0007 24.929C21.63 25.1423 21.1827 25.1489 20.2872 25.1637L17.9995 25.2L15.7135 25.1637C14.8172 25.1489 14.3699 25.1423 14 24.9281C13.6301 24.7139 13.3986 24.3301 12.9389 23.5615L11.7634 21.6L10.6529 19.6023Z" stroke="#9D9D9D" stroke-width="1.2"/>
<path d="M17.9997 20.4691C19.3646 20.4691 20.4711 19.3626 20.4711 17.9977C20.4711 16.6328 19.3646 15.5263 17.9997 15.5263C16.6348 15.5263 15.5283 16.6328 15.5283 17.9977C15.5283 19.3626 16.6348 20.4691 17.9997 20.4691Z" stroke="#9D9D9D" stroke-width="1.2"/>
</svg>
