<svg width="228" height="48" viewBox="0 0 228 48" fill="none" xmlns="http://www.w3.org/2000/svg">
<path d="M200.157 48V41.2815H193.383V20.3048H200.157V13.5117H221.151V20.3048H228V41.2815H221.151V48H200.157ZM200.902 40.535H220.406V20.9767H200.902V40.535Z" fill="#00733C"/>
<path d="M178.334 48V13.5117H185.853V48H178.334ZM178.334 7.53966V0H185.853V7.53966H178.334Z" fill="#00733C"/>
<path d="M141.488 48V41.2815H134.713V20.3048H141.488V13.5117H161.811V0H169.33V41.2815H162.481V48H141.488ZM142.232 40.535H161.737V20.9767H142.232V40.535Z" fill="#00733C"/>
<path d="M99.3224 48V41.2815H92.5479V13.5117H100.067V40.535H119.571V13.5117H127.165V41.2815H120.316V48H99.3224Z" fill="#00733C"/>
<path d="M57.0947 48V41.2815H50.3946V20.9767H43.6201V13.5117H50.3946V0H57.8391V13.5117H78.2371V20.9767H57.8391V40.535H77.4927V33.7418H85.0116V41.2815H78.2371V48H57.0947Z" fill="#00733C"/>
<path d="M0 48V40.535H27.0236V34.4883H6.77451V27.6952H0V20.3048H6.77451V13.5117H34.617V20.9767H7.51896V26.9487H27.7681V33.7418H34.617V41.2815H27.7681V48H0Z" fill="#00733C"/>
</svg>
